<mxfile host="app.diagrams.net" agent="Mozilla/5.0 (Windows NT 10.0; Win64; x64) AppleWebKit/537.36 (KHTML, like Gecko) Chrome/131.0.0.0 Safari/537.36" version="25.0.1">
  <diagram name="第 1 页" id="XWFMHBdU6j5NAAE7hTZV">
    <mxGraphModel dx="1450" dy="667" grid="1" gridSize="10" guides="1" tooltips="1" connect="1" arrows="1" fold="1" page="0" pageScale="1" pageWidth="1200" pageHeight="1920" background="#ffffff" math="0" shadow="0">
      <root>
        <mxCell id="0" />
        <mxCell id="1" parent="0" />
        <mxCell id="y96txpXQ7I3kRc_q9avi-28" style="edgeStyle=none;curved=1;rounded=0;orthogonalLoop=1;jettySize=auto;html=1;entryX=0.5;entryY=0;entryDx=0;entryDy=0;fontSize=15;startSize=8;endSize=8;fontStyle=1;align=center;verticalAlign=middle;labelBorderColor=none;textShadow=0;labelBackgroundColor=none;fontColor=default;" parent="1" edge="1">
          <mxGeometry relative="1" as="geometry">
            <mxPoint x="-150.5" y="140" as="sourcePoint" />
            <mxPoint x="-150.5" y="465" as="targetPoint" />
          </mxGeometry>
        </mxCell>
        <mxCell id="y96txpXQ7I3kRc_q9avi-33" value="图片上传" style="edgeLabel;html=1;align=center;verticalAlign=middle;resizable=0;points=[];fontSize=15;fontStyle=1;labelBorderColor=none;textShadow=0;labelBackgroundColor=none;fontColor=default;" parent="y96txpXQ7I3kRc_q9avi-28" vertex="1" connectable="0">
          <mxGeometry x="-0.0105" y="3" relative="1" as="geometry">
            <mxPoint as="offset" />
          </mxGeometry>
        </mxCell>
        <mxCell id="y96txpXQ7I3kRc_q9avi-1" value="用户上传图片" style="rounded=0;whiteSpace=wrap;html=1;fillColor=#f5f5f5;fontColor=default;strokeColor=#666666;fontSize=15;fontStyle=1;align=center;verticalAlign=middle;labelBorderColor=none;textShadow=0;labelBackgroundColor=none;glass=0;shadow=1;sketch=1;curveFitting=1;jiggle=2;" parent="1" vertex="1">
          <mxGeometry x="-210" y="80.00000000000001" width="120" height="60" as="geometry" />
        </mxCell>
        <mxCell id="y96txpXQ7I3kRc_q9avi-4" style="edgeStyle=none;curved=1;rounded=0;orthogonalLoop=1;jettySize=auto;html=1;fontSize=15;startSize=8;endSize=8;exitX=0.5;exitY=1;exitDx=0;exitDy=0;entryX=0.5;entryY=0;entryDx=0;entryDy=0;fontStyle=1;align=center;verticalAlign=middle;labelBorderColor=none;textShadow=0;labelBackgroundColor=none;fontColor=default;" parent="1" source="y96txpXQ7I3kRc_q9avi-2" target="y96txpXQ7I3kRc_q9avi-18" edge="1">
          <mxGeometry relative="1" as="geometry">
            <mxPoint x="423.00004882812505" y="323" as="targetPoint" />
            <mxPoint x="227" y="323" as="sourcePoint" />
          </mxGeometry>
        </mxCell>
        <mxCell id="y96txpXQ7I3kRc_q9avi-24" value="舌苔详细描述" style="edgeLabel;html=1;align=center;verticalAlign=middle;resizable=0;points=[];fontSize=15;fontStyle=1;labelBorderColor=none;textShadow=0;labelBackgroundColor=none;fontColor=default;" parent="y96txpXQ7I3kRc_q9avi-4" vertex="1" connectable="0">
          <mxGeometry x="0.049" y="-1" relative="1" as="geometry">
            <mxPoint x="9" y="-4" as="offset" />
          </mxGeometry>
        </mxCell>
        <mxCell id="y96txpXQ7I3kRc_q9avi-12" style="edgeStyle=none;curved=1;rounded=0;orthogonalLoop=1;jettySize=auto;html=1;fontSize=15;startSize=8;endSize=8;fillColor=#dae8fc;strokeColor=#6c8ebf;fontStyle=1;align=center;verticalAlign=middle;labelBorderColor=none;textShadow=0;labelBackgroundColor=none;fontColor=default;" parent="1" source="y96txpXQ7I3kRc_q9avi-2" target="y96txpXQ7I3kRc_q9avi-14" edge="1">
          <mxGeometry relative="1" as="geometry">
            <mxPoint x="102.60003662109375" y="139.79998779296875" as="targetPoint" />
          </mxGeometry>
        </mxCell>
        <mxCell id="y96txpXQ7I3kRc_q9avi-15" style="edgeStyle=none;curved=1;rounded=0;orthogonalLoop=1;jettySize=auto;html=1;fontSize=15;startSize=8;endSize=8;fillColor=#dae8fc;strokeColor=#6c8ebf;fontStyle=1;align=center;verticalAlign=middle;labelBorderColor=none;textShadow=0;labelBackgroundColor=none;fontColor=default;" parent="1" source="y96txpXQ7I3kRc_q9avi-2" target="y96txpXQ7I3kRc_q9avi-16" edge="1">
          <mxGeometry relative="1" as="geometry">
            <mxPoint x="255.40008544921875" y="160.60000610351562" as="targetPoint" />
          </mxGeometry>
        </mxCell>
        <mxCell id="y96txpXQ7I3kRc_q9avi-2" value="图片理解模型" style="rounded=0;whiteSpace=wrap;html=1;fillColor=#dae8fc;strokeColor=#6c8ebf;fontSize=15;fontStyle=1;align=center;verticalAlign=middle;labelBorderColor=none;textShadow=0;labelBackgroundColor=none;fontColor=default;glass=0;shadow=1;sketch=1;curveFitting=1;jiggle=2;" parent="1" vertex="1">
          <mxGeometry x="146" y="239" width="120" height="60" as="geometry" />
        </mxCell>
        <mxCell id="y96txpXQ7I3kRc_q9avi-22" style="edgeStyle=none;curved=1;rounded=0;orthogonalLoop=1;jettySize=auto;html=1;entryX=1;entryY=0.5;entryDx=0;entryDy=0;fontSize=15;startSize=8;endSize=8;fontStyle=1;align=center;verticalAlign=middle;labelBorderColor=none;textShadow=0;labelBackgroundColor=none;fontColor=default;" parent="1" target="y96txpXQ7I3kRc_q9avi-18" edge="1">
          <mxGeometry relative="1" as="geometry">
            <mxPoint x="550.0177414615598" y="299" as="sourcePoint" />
            <mxPoint x="328" y="495" as="targetPoint" />
          </mxGeometry>
        </mxCell>
        <mxCell id="y96txpXQ7I3kRc_q9avi-23" value="舌苔详细描述" style="edgeLabel;html=1;align=center;verticalAlign=middle;resizable=0;points=[];fontSize=15;fontStyle=1;labelBorderColor=none;textShadow=0;labelBackgroundColor=none;fontColor=default;" parent="y96txpXQ7I3kRc_q9avi-22" vertex="1" connectable="0">
          <mxGeometry x="-0.1485" relative="1" as="geometry">
            <mxPoint x="-107" y="-6" as="offset" />
          </mxGeometry>
        </mxCell>
        <mxCell id="y96txpXQ7I3kRc_q9avi-26" value="JSON格式数据（状况+调理建议）" style="edgeLabel;html=1;align=center;verticalAlign=middle;resizable=0;points=[];fontSize=15;fontStyle=1;labelBorderColor=none;textShadow=0;labelBackgroundColor=none;fontColor=default;" parent="y96txpXQ7I3kRc_q9avi-22" vertex="1" connectable="0">
          <mxGeometry x="-0.0638" y="1" relative="1" as="geometry">
            <mxPoint x="62" y="2" as="offset" />
          </mxGeometry>
        </mxCell>
        <mxCell id="y96txpXQ7I3kRc_q9avi-5" value="文心一言/Qwen模型" style="rounded=0;whiteSpace=wrap;html=1;fillColor=#d5e8d4;strokeColor=#82b366;fontSize=15;fontStyle=1;align=center;verticalAlign=middle;labelBorderColor=none;textShadow=0;labelBackgroundColor=none;fontColor=default;glass=0;shadow=1;sketch=1;curveFitting=1;jiggle=2;" parent="1" vertex="1">
          <mxGeometry x="462.000048828125" y="239" width="120" height="60" as="geometry" />
        </mxCell>
        <mxCell id="y96txpXQ7I3kRc_q9avi-8" style="edgeStyle=none;curved=1;rounded=0;orthogonalLoop=1;jettySize=auto;html=1;entryX=0.5;entryY=0;entryDx=0;entryDy=0;fontSize=15;startSize=8;endSize=8;fontStyle=1;align=center;verticalAlign=middle;labelBorderColor=none;textShadow=0;labelBackgroundColor=none;fontColor=default;" parent="1" source="y96txpXQ7I3kRc_q9avi-7" target="y96txpXQ7I3kRc_q9avi-5" edge="1">
          <mxGeometry relative="1" as="geometry" />
        </mxCell>
        <mxCell id="y96txpXQ7I3kRc_q9avi-9" value="RAG" style="edgeLabel;html=1;align=center;verticalAlign=middle;resizable=0;points=[];fontSize=15;fontStyle=1;labelBorderColor=none;textShadow=0;labelBackgroundColor=none;fontColor=default;" parent="y96txpXQ7I3kRc_q9avi-8" vertex="1" connectable="0">
          <mxGeometry x="-0.0955" relative="1" as="geometry">
            <mxPoint as="offset" />
          </mxGeometry>
        </mxCell>
        <mxCell id="y96txpXQ7I3kRc_q9avi-7" value="中医知识库" style="rounded=0;whiteSpace=wrap;html=1;fillColor=#d5e8d4;strokeColor=#82b366;fontSize=15;fontStyle=1;align=center;verticalAlign=middle;labelBorderColor=none;textShadow=0;labelBackgroundColor=none;fontColor=default;glass=0;shadow=1;sketch=1;curveFitting=1;jiggle=2;" parent="1" vertex="1">
          <mxGeometry x="462" y="80" width="120" height="60" as="geometry" />
        </mxCell>
        <mxCell id="y96txpXQ7I3kRc_q9avi-14" value="百度图片理解" style="rounded=0;whiteSpace=wrap;html=1;fillColor=#dae8fc;strokeColor=#6c8ebf;fontSize=15;fontStyle=1;align=center;verticalAlign=middle;labelBorderColor=none;textShadow=0;labelBackgroundColor=none;fontColor=default;glass=0;shadow=1;sketch=1;curveFitting=1;jiggle=2;" parent="1" vertex="1">
          <mxGeometry x="36.00003662109375" y="79.99998779296875" width="120" height="60" as="geometry" />
        </mxCell>
        <mxCell id="y96txpXQ7I3kRc_q9avi-16" value="阿里云视觉大模型" style="rounded=0;whiteSpace=wrap;html=1;fillColor=#dae8fc;strokeColor=#6c8ebf;fontSize=15;fontStyle=1;align=center;verticalAlign=middle;labelBorderColor=none;textShadow=0;labelBackgroundColor=none;fontColor=default;glass=0;shadow=1;sketch=1;curveFitting=1;jiggle=2;" parent="1" vertex="1">
          <mxGeometry x="261.0000854492188" y="80.00000610351563" width="120" height="60" as="geometry" />
        </mxCell>
        <mxCell id="y96txpXQ7I3kRc_q9avi-21" style="edgeStyle=none;curved=1;rounded=0;orthogonalLoop=1;jettySize=auto;html=1;entryX=0.5;entryY=1;entryDx=0;entryDy=0;fontSize=15;startSize=8;endSize=8;fontStyle=1;align=center;verticalAlign=middle;labelBorderColor=none;textShadow=0;labelBackgroundColor=none;fontColor=default;" parent="1" source="y96txpXQ7I3kRc_q9avi-18" target="y96txpXQ7I3kRc_q9avi-2" edge="1">
          <mxGeometry relative="1" as="geometry" />
        </mxCell>
        <mxCell id="y96txpXQ7I3kRc_q9avi-25" style="edgeStyle=none;curved=1;rounded=0;orthogonalLoop=1;jettySize=auto;html=1;fontSize=15;startSize=8;endSize=8;fontStyle=1;align=center;verticalAlign=middle;labelBorderColor=none;textShadow=0;labelBackgroundColor=none;fontColor=default;" parent="1" source="y96txpXQ7I3kRc_q9avi-18" target="y96txpXQ7I3kRc_q9avi-5" edge="1">
          <mxGeometry relative="1" as="geometry" />
        </mxCell>
        <mxCell id="y96txpXQ7I3kRc_q9avi-29" style="edgeStyle=none;curved=1;rounded=0;orthogonalLoop=1;jettySize=auto;html=1;entryX=1;entryY=0.5;entryDx=0;entryDy=0;fontSize=15;startSize=8;endSize=8;fontStyle=1;align=center;verticalAlign=middle;labelBorderColor=none;textShadow=0;labelBackgroundColor=none;fontColor=default;" parent="1" source="y96txpXQ7I3kRc_q9avi-18" target="y96txpXQ7I3kRc_q9avi-27" edge="1">
          <mxGeometry relative="1" as="geometry" />
        </mxCell>
        <mxCell id="y96txpXQ7I3kRc_q9avi-30" value="JSON格式数据" style="edgeLabel;html=1;align=center;verticalAlign=middle;resizable=0;points=[];fontSize=15;fontStyle=1;labelBorderColor=none;textShadow=0;labelBackgroundColor=none;fontColor=default;" parent="y96txpXQ7I3kRc_q9avi-29" vertex="1" connectable="0">
          <mxGeometry x="0.0356" y="2" relative="1" as="geometry">
            <mxPoint as="offset" />
          </mxGeometry>
        </mxCell>
        <mxCell id="y96txpXQ7I3kRc_q9avi-18" value="服务器端" style="rounded=0;whiteSpace=wrap;html=1;fillColor=#fff2cc;strokeColor=#d6b656;fontSize=15;fontStyle=1;align=center;verticalAlign=middle;labelBorderColor=none;textShadow=0;labelBackgroundColor=none;fontColor=default;glass=0;shadow=1;sketch=1;curveFitting=1;jiggle=2;" parent="1" vertex="1">
          <mxGeometry x="146" y="465" width="120" height="60" as="geometry" />
        </mxCell>
        <mxCell id="y96txpXQ7I3kRc_q9avi-19" style="edgeStyle=none;curved=1;rounded=0;orthogonalLoop=1;jettySize=auto;html=1;fontSize=15;startSize=8;endSize=8;fontStyle=1;align=center;verticalAlign=middle;labelBorderColor=none;textShadow=0;labelBackgroundColor=none;fontColor=default;" parent="1" source="y96txpXQ7I3kRc_q9avi-5" target="y96txpXQ7I3kRc_q9avi-5" edge="1">
          <mxGeometry relative="1" as="geometry" />
        </mxCell>
        <mxCell id="y96txpXQ7I3kRc_q9avi-27" value="前端" style="rounded=0;whiteSpace=wrap;html=1;fillColor=#fff2cc;strokeColor=#d6b656;fontSize=15;fontStyle=1;align=center;verticalAlign=middle;labelBorderColor=none;textShadow=0;labelBackgroundColor=none;fontColor=default;glass=0;shadow=1;sketch=1;curveFitting=1;jiggle=2;" parent="1" vertex="1">
          <mxGeometry x="-210" y="465" width="120" height="60" as="geometry" />
        </mxCell>
        <mxCell id="y96txpXQ7I3kRc_q9avi-31" style="edgeStyle=none;curved=1;rounded=0;orthogonalLoop=1;jettySize=auto;html=1;fontSize=15;startSize=8;endSize=8;elbow=horizontal;fontStyle=1;align=center;verticalAlign=middle;labelBorderColor=none;textShadow=0;labelBackgroundColor=none;fontColor=default;" parent="1" source="y96txpXQ7I3kRc_q9avi-27" target="y96txpXQ7I3kRc_q9avi-27" edge="1">
          <mxGeometry relative="1" as="geometry">
            <Array as="points">
              <mxPoint x="-105" y="567" />
            </Array>
          </mxGeometry>
        </mxCell>
        <mxCell id="y96txpXQ7I3kRc_q9avi-32" value="内容渲染" style="text;html=1;align=center;verticalAlign=middle;whiteSpace=wrap;rounded=0;fontSize=15;fontStyle=1;labelBorderColor=none;textShadow=0;labelBackgroundColor=none;fontColor=default;" parent="1" vertex="1">
          <mxGeometry x="-195" y="557" width="90" height="42" as="geometry" />
        </mxCell>
      </root>
    </mxGraphModel>
  </diagram>
</mxfile>
